<?xml version="1.0" standalone="no"?>
<!DOCTYPE svg PUBLIC "-//W3C//DTD SVG 20010904//EN"
 "http://www.w3.org/TR/2001/REC-SVG-20010904/DTD/svg10.dtd">
<svg version="1.0" xmlns="http://www.w3.org/2000/svg"
 width="512.000000pt" height="512.000000pt" viewBox="0 0 512.000000 512.000000"
 preserveAspectRatio="xMidYMid meet">

<g transform="translate(0.000000,512.000000) scale(0.100000,-0.100000)"
fill="#000000" stroke="none">
<path d="M1378 5050 c-63 -65 -70 -70 -110 -70 -68 0 -166 -28 -257 -71 -115
-56 -239 -178 -298 -294 -63 -122 -77 -187 -78 -349 l0 -138 -41 -42 c-61 -60
-81 -160 -53 -261 11 -38 69 -107 98 -117 12 -3 16 -35 19 -150 4 -135 3 -149
-16 -175 -84 -118 -61 -314 48 -423 48 -48 133 -91 195 -97 l41 -5 12 -112
c27 -270 124 -475 312 -661 l80 -80 -2 -154 -3 -154 -314 -128 c-172 -71 -323
-135 -336 -143 -31 -20 -39 -59 -20 -96 19 -37 55 -47 103 -28 20 9 127 52
237 98 110 45 210 86 222 90 20 9 34 -23 314 -722 161 -402 301 -740 311 -750
25 -25 70 -23 95 5 12 12 151 346 309 742 158 396 290 723 293 728 4 4 14 1
23 -5 15 -11 16 -23 7 -98 -13 -103 -5 -242 22 -372 50 -249 161 -452 348
-639 240 -239 512 -360 846 -375 504 -23 971 254 1197 711 88 179 128 354 128
560 0 334 -125 649 -350 878 -86 87 -105 93 -152 47 -41 -42 -33 -66 52 -157
190 -203 287 -437 297 -715 8 -204 -19 -350 -98 -525 -68 -151 -224 -341 -356
-436 l-53 -37 0 140 0 139 44 63 c62 89 95 160 112 237 18 84 20 823 3 886 -7
25 -29 58 -58 86 -66 66 -141 84 -225 54 -38 -13 -41 -13 -62 10 -42 45 -100
67 -169 63 l-63 -3 -12 38 c-14 48 -62 103 -113 129 -32 16 -54 19 -107 16
-78 -4 -138 -37 -172 -94 -20 -34 -21 -34 -74 -28 -102 12 -192 -33 -233 -119
-19 -38 -21 -61 -21 -205 l0 -162 -35 0 c-76 0 -162 -61 -190 -134 -14 -37
-16 -78 -13 -277 3 -226 5 -237 32 -314 35 -100 85 -184 153 -256 l54 -56 -3
-128 -3 -127 -79 53 c-466 312 -632 913 -391 1416 57 121 111 199 203 295 334
350 843 446 1289 242 89 -40 92 -40 127 -13 26 20 34 57 20 94 -17 43 -268
135 -438 161 -121 19 -334 14 -444 -10 -320 -70 -611 -263 -789 -523 -81 -118
-127 -211 -178 -360 -3 -8 -29 -1 -82 21 l-78 33 -3 154 -2 155 52 46 c202
173 347 482 348 734 l0 71 42 7 c142 23 265 153 283 300 7 57 -14 162 -40 203
-12 18 -14 50 -8 176 l6 154 39 18 c23 10 50 33 66 58 23 35 27 52 30 131 3
79 0 97 -20 136 -13 25 -39 55 -60 69 -29 19 -39 32 -43 60 -25 178 -65 297
-141 413 -81 127 -201 238 -254 238 -41 0 -73 -31 -73 -69 0 -27 12 -44 77
-107 80 -78 147 -173 184 -261 26 -62 52 -166 52 -210 l0 -33 -79 0 -79 0 -28
58 c-43 86 -170 210 -264 256 -177 86 -364 86 -539 0 -94 -47 -212 -161 -260
-251 l-32 -63 -60 0 c-50 0 -68 5 -102 29 -96 66 -163 164 -194 284 -36 140
11 347 102 455 l26 31 52 -41 c88 -69 79 -68 454 -68 212 0 368 -5 421 -12
l84 -12 25 28 c19 23 24 36 19 60 -15 76 -72 86 -517 86 l-345 0 -65 53 c-136
112 -139 112 -231 17z m-163 -270 c-22 -62 -37 -198 -30 -264 14 -131 51 -230
121 -328 l34 -48 -275 0 -275 0 -1 68 c-2 120 2 176 17 232 47 168 182 309
344 361 80 26 81 26 65 -21z m1205 -441 c69 -24 152 -80 195 -133 188 -232
114 -567 -154 -695 -74 -35 -79 -36 -192 -36 -113 0 -116 1 -191 38 -227 112
-319 381 -207 605 29 59 110 148 164 180 111 68 261 83 385 41z m-750 -424 l0
-75 -483 0 c-362 0 -486 3 -495 12 -16 16 -16 110 0 126 9 9 133 12 495 12
l483 0 0 -75z m1434 69 c20 -8 23 -113 4 -132 -8 -8 -50 -12 -125 -12 l-113 0
0 75 0 75 109 0 c60 0 116 -3 125 -6z m-2174 -363 l0 -68 -37 -7 c-21 -3 -48
-9 -60 -12 -22 -6 -23 -5 -23 75 l0 81 60 0 60 0 0 -69z m804 29 c25 -56 98
-151 149 -193 111 -91 244 -139 387 -140 140 0 266 44 378 132 l52 41 0 -380
c0 -421 -5 -471 -63 -610 -89 -215 -237 -373 -444 -472 -112 -54 -205 -78
-303 -78 -299 0 -617 236 -743 551 -60 150 -60 152 -64 692 l-4 497 318 0 319
0 18 -40z m1246 -7 c0 -27 -3 -64 -6 -85 -6 -34 -8 -36 -33 -28 -14 5 -38 11
-53 14 -27 6 -28 8 -28 76 l0 70 60 0 60 0 0 -47z m-2050 -439 l0 -197 -37 6
c-20 4 -53 19 -72 35 -134 106 -91 302 74 343 17 4 31 7 33 8 1 1 2 -87 2
-195z m1989 172 c42 -22 89 -81 101 -127 15 -56 4 -110 -31 -159 -27 -38 -93
-79 -126 -80 -10 0 -13 45 -13 190 0 185 1 190 20 190 12 0 34 -7 49 -14z
m940 -1353 c20 -17 21 -27 23 -329 3 -291 4 -313 22 -333 20 -22 65 -28 96
-11 33 18 40 66 40 273 0 172 2 203 17 219 22 25 75 23 99 -3 17 -19 19 -43
24 -246 5 -208 6 -226 24 -239 33 -23 82 -18 105 12 20 25 21 40 21 210 l0
183 26 20 c35 27 59 26 89 -4 l25 -24 0 -276 0 -275 -168 0 c-207 0 -251 -11
-316 -76 -43 -43 -76 -114 -76 -166 0 -9 -13 -24 -29 -32 -129 -67 -180 -226
-113 -357 30 -60 91 -112 150 -129 20 -5 112 -10 205 -10 l167 0 0 -94 0 -94
-78 -26 c-234 -78 -476 -84 -694 -16 l-68 21 0 147 0 147 37 20 c21 11 51 39
68 63 28 40 30 51 33 141 4 109 -9 151 -65 202 -49 46 -83 57 -201 64 l-112 8
0 188 c0 176 1 190 20 209 29 29 74 26 99 -6 19 -24 21 -40 21 -174 0 -134 2
-150 21 -174 28 -36 80 -36 108 0 19 25 21 40 21 188 0 150 -2 164 -25 214
-24 51 -25 63 -25 237 l0 184 26 20 c35 27 59 26 89 -4 l25 -24 0 -239 c0
-227 1 -241 21 -266 26 -33 79 -36 109 -6 19 19 20 33 20 324 0 292 1 304 21
330 24 31 66 35 98 9z m-2169 -199 c48 -14 101 -18 200 -19 147 0 208 13 329
67 35 15 68 28 72 28 5 0 9 -51 9 -114 l0 -115 -160 -138 c-88 -76 -173 -143
-188 -150 -40 -18 -103 -16 -139 5 -18 9 -99 76 -182 147 l-150 130 0 122 -1
122 73 -34 c39 -18 101 -41 137 -51z m-131 -424 c184 -162 209 -175 326 -175
120 0 142 12 342 185 89 77 164 140 166 140 7 0 -497 -1260 -504 -1260 -3 0
-113 269 -244 598 -131 328 -245 612 -252 630 -13 32 -13 33 5 20 10 -7 83
-69 161 -138z m2906 -407 c-12 -100 -15 -103 -90 -103 -57 0 -69 -3 -90 -25
-14 -13 -25 -35 -25 -48 0 -34 36 -77 66 -77 30 0 30 -3 -2 -45 -14 -19 -28
-53 -31 -75 l-6 -41 -169 3 -170 3 -29 33 c-55 62 -25 161 54 177 61 12 69 17
83 51 8 18 14 58 14 87 0 63 25 103 68 110 15 2 96 5 181 6 l153 1 -7 -57z
m-1045 -163 c29 -29 29 -129 -1 -156 -21 -19 -22 -19 -64 30 -24 26 -55 70
-70 97 l-26 49 70 0 c58 0 75 -4 91 -20z"/>
<path d="M2190 4207 c-136 -38 -227 -168 -218 -310 19 -305 431 -389 567 -115
77 153 9 341 -147 411 -56 24 -144 31 -202 14z m144 -157 c53 -26 78 -62 84
-120 13 -137 -140 -214 -248 -124 -101 85 -33 257 104 263 11 1 38 -8 60 -19z"/>
<path d="M395 1230 c-143 -114 -292 -362 -352 -587 -24 -90 -26 -118 -31 -349
l-4 -251 27 -22 c36 -27 57 -27 92 3 l28 24 6 239 c4 131 12 258 18 283 52
203 139 366 267 500 71 74 86 103 72 141 -9 25 -44 49 -72 49 -7 0 -30 -13
-51 -30z"/>
<path d="M522 630 c-51 -31 -62 -70 -62 -220 0 -150 11 -189 62 -220 31 -19
50 -20 376 -20 300 0 347 2 372 16 53 32 60 57 60 228 l0 156 -34 38 -34 37
-354 3 c-340 2 -354 2 -386 -18z m658 -220 l0 -90 -285 0 -285 0 0 90 0 90
285 0 285 0 0 -90z"/>
</g>
</svg>
