<?xml version="1.0" standalone="no"?>
<!DOCTYPE svg PUBLIC "-//W3C//DTD SVG 20010904//EN"
 "http://www.w3.org/TR/2001/REC-SVG-20010904/DTD/svg10.dtd">
<svg version="1.0" xmlns="http://www.w3.org/2000/svg"
 width="512.000000pt" height="512.000000pt" viewBox="0 0 512.000000 512.000000"
 preserveAspectRatio="xMidYMid meet">

<g transform="translate(0.000000,512.000000) scale(0.100000,-0.100000)"
fill="#000000" stroke="none">
<path d="M1516 4900 c-81 -14 -169 -64 -226 -127 -49 -55 -52 -57 -133 -74
-121 -24 -189 -61 -278 -149 -60 -60 -85 -93 -117 -160 -66 -139 -72 -180 -72
-477 l0 -260 -51 -6 c-71 -9 -146 -54 -186 -111 -74 -108 -63 -245 29 -336 39
-40 122 -80 163 -80 l31 0 13 -87 c22 -154 90 -325 179 -447 61 -84 185 -210
256 -258 32 -22 92 -56 132 -75 l74 -34 0 -54 0 -55 -242 0 c-280 0 -338 -9
-462 -69 -197 -96 -340 -274 -396 -495 -19 -75 -20 -111 -20 -615 0 -470 2
-539 16 -559 l15 -22 1520 0 1519 0 42 -21 c398 -203 911 -128 1244 183 165
155 287 378 330 605 24 131 15 355 -21 483 -133 481 -559 813 -1045 813 -321
0 -601 -119 -819 -348 l-72 -76 -82 41 c-143 70 -203 80 -489 80 l-248 0 0 64
0 64 64 30 c299 140 522 457 553 785 l6 67 32 0 c83 0 174 58 218 139 59 107
42 227 -41 310 -49 49 -118 81 -174 81 l-28 0 2 213 3 212 95 3 c126 4 140 15
140 117 0 145 -65 316 -166 439 -71 86 -150 148 -249 196 -149 71 -162 73
-610 76 -220 1 -422 -1 -449 -6z m1091 -1337 c-4 -551 -4 -553 -64 -702 -87
-218 -276 -412 -487 -500 -197 -82 -454 -84 -661 -6 -250 94 -451 323 -527
600 -19 73 -22 111 -26 406 l-4 326 79 6 c186 15 361 89 525 224 38 30 87 77
109 104 l41 49 510 0 509 0 -4 -507z m-1917 -173 l0 -120 -26 0 c-55 0 -114
59 -114 113 0 61 35 101 103 117 17 5 33 8 35 9 1 1 2 -53 2 -119z m2163 70
c21 -24 27 -40 27 -76 0 -39 -5 -51 -34 -80 -24 -24 -43 -34 -65 -34 l-31 0 0
113 c0 63 3 116 6 119 12 13 70 -13 97 -42z m918 -1311 c-18 -90 7 -169 74
-227 55 -49 89 -62 182 -73 182 -20 324 -136 384 -311 17 -52 20 -79 16 -149
-5 -100 -11 -115 -150 -379 -70 -132 -104 -186 -144 -226 -96 -96 -265 -157
-372 -133 -71 16 -107 44 -150 117 -65 112 -123 152 -216 152 -129 0 -212 -81
-230 -224 l-8 -58 -37 37 -38 37 15 56 c8 32 24 72 35 91 45 72 165 121 343
141 211 24 322 86 386 215 80 164 26 355 -141 495 -102 85 -123 178 -90 395
12 77 24 142 27 145 2 3 30 7 61 10 l57 5 3 -30 c2 -16 -1 -55 -7 -86z m262
95 c320 -73 608 -345 706 -666 133 -436 -89 -920 -513 -1119 -144 -67 -217
-82 -401 -83 -120 0 -177 4 -228 17 -84 21 -199 68 -259 106 l-45 28 16 101
c18 114 35 142 86 142 36 0 53 -16 84 -78 34 -67 87 -119 161 -156 87 -43 158
-52 270 -32 164 29 313 127 403 264 81 123 226 417 247 498 71 276 -54 548
-311 678 -81 41 -106 48 -179 55 -148 13 -164 37 -144 209 8 60 5 59 107 36z
m-564 -167 c-10 -100 -10 -140 0 -203 20 -122 49 -175 145 -268 93 -90 125
-143 133 -221 15 -141 -100 -226 -331 -245 -61 -6 -133 -15 -161 -21 -108 -25
-211 -99 -256 -184 -13 -25 -27 -45 -30 -45 -10 0 -48 97 -71 180 -29 108 -36
307 -13 425 46 247 206 486 413 620 70 45 173 96 181 90 1 -2 -3 -60 -10 -128z
m-1499 40 l0 -62 -128 -128 -128 -128 -117 124 -117 125 0 62 0 62 28 -6 c15
-4 95 -9 177 -12 112 -4 164 -1 205 9 84 22 80 24 80 -46z m-471 -302 l131
-154 0 -581 0 -580 -640 0 -640 0 0 458 c0 512 4 544 66 671 46 93 152 203
241 249 51 27 192 72 225 72 4 0 8 -46 8 -102 l0 -103 -69 -32 c-85 -40 -154
-106 -189 -181 -27 -57 -27 -58 -30 -328 l-3 -272 27 -21 c22 -18 40 -21 109
-21 97 0 126 15 127 68 1 44 -25 70 -76 74 l-41 3 0 201 0 201 30 49 c77 124
228 152 331 61 72 -63 78 -88 79 -312 l0 -200 -54 -5 c-58 -6 -81 -25 -81 -69
0 -13 10 -35 22 -48 20 -21 30 -23 125 -23 144 0 135 -21 131 322 l-3 273 -29
63 c-36 77 -105 143 -182 171 -30 12 -59 21 -64 21 -6 0 -10 48 -10 115 l0
115 164 0 165 0 130 -155z m711 -54 l0 -209 -43 -25 c-57 -33 -124 -107 -149
-164 -38 -85 -23 -192 38 -277 60 -82 149 -126 255 -126 113 0 213 62 267 164
39 74 38 178 -1 258 -33 68 -89 119 -163 149 l-54 23 0 209 0 210 138 -6 c144
-6 207 -19 297 -64 28 -14 52 -27 54 -29 2 -1 -15 -46 -38 -98 -176 -412 -103
-853 201 -1207 26 -31 48 -59 48 -63 0 -3 -290 -6 -645 -6 l-645 0 0 578 0
578 165 157 165 157 55 0 55 0 0 -209z m178 -371 c93 -57 97 -204 7 -260 -41
-26 -118 -27 -165 -2 -99 52 -102 205 -5 263 41 26 120 25 163 -1z"/>
<path d="M1080 3573 c-42 -53 -11 -191 57 -254 158 -147 403 -39 403 178 0 75
-20 103 -73 103 -41 0 -67 -26 -67 -66 0 -48 -20 -103 -43 -119 -36 -25 -84
-19 -118 14 -23 24 -29 38 -29 74 0 59 -29 97 -75 97 -25 0 -39 -7 -55 -27z"/>
<path d="M1911 3574 c-37 -48 -23 -162 30 -233 12 -16 44 -42 73 -57 41 -23
63 -29 116 -28 79 0 132 24 183 84 84 99 73 260 -18 260 -47 0 -75 -37 -75
-100 0 -62 -34 -100 -90 -100 -56 0 -90 38 -90 100 0 63 -28 100 -75 100 -24
0 -39 -7 -54 -26z"/>
<path d="M3982 1767 c-44 -46 -15 -120 47 -120 66 0 98 76 51 123 -27 27 -71
26 -98 -3z"/>
<path d="M4267 1523 c-27 -31 -26 -74 3 -103 27 -27 66 -25 95 5 30 29 32 68
5 95 -25 25 -81 26 -103 3z"/>
<path d="M3955 1490 c-41 -45 -9 -120 52 -120 31 0 73 42 73 75 0 57 -86 89
-125 45z"/>
<path d="M4159 1278 c-15 -5 -32 -22 -39 -38 -24 -59 37 -118 95 -92 83 38 31
159 -56 130z"/>
<path d="M3851 1104 c-27 -35 -26 -59 4 -89 33 -34 77 -33 104 1 12 15 21 34
21 44 0 34 -39 70 -75 70 -24 0 -39 -7 -54 -26z"/>
<path d="M4040 1080 c-42 -42 -8 -120 53 -120 58 0 91 85 49 123 -25 23 -78
21 -102 -3z"/>
<path d="M3653 958 c-12 -6 -27 -24 -34 -40 -35 -84 90 -137 129 -55 17 36 2
79 -34 96 -29 13 -32 13 -61 -1z"/>
<path d="M3866 828 c-35 -50 -5 -118 52 -118 62 0 95 77 52 120 -28 28 -84 27
-104 -2z"/>
</g>
</svg>
