<?xml version="1.0" standalone="no"?>
<!DOCTYPE svg PUBLIC "-//W3C//DTD SVG 20010904//EN"
 "http://www.w3.org/TR/2001/REC-SVG-20010904/DTD/svg10.dtd">
<svg version="1.0" xmlns="http://www.w3.org/2000/svg"
 width="512.000000pt" height="512.000000pt" viewBox="0 0 512.000000 512.000000"
 preserveAspectRatio="xMidYMid meet">

<g transform="translate(0.000000,512.000000) scale(0.100000,-0.100000)"
fill="#000000" stroke="none">
<path d="M2400 4427 c-42 -9 -71 -25 -118 -65 -35 -28 -69 -52 -76 -52 -6 0
-27 11 -46 25 -43 32 -102 48 -143 40 -61 -13 -147 -68 -206 -130 -68 -73
-131 -196 -182 -352 l-33 -101 28 -41 c15 -22 34 -42 42 -45 11 -4 9 -13 -11
-42 -32 -47 -45 -95 -45 -165 0 -104 45 -188 130 -241 46 -28 49 -33 90 -146
119 -329 268 -542 432 -617 113 -51 331 -53 463 -4 81 30 210 158 283 281 57
94 136 271 173 386 20 64 28 76 59 92 145 75 190 278 93 422 -25 38 -31 54
-21 57 7 2 37 27 67 56 l53 51 -27 55 c-55 109 -119 196 -209 284 -125 122
-253 195 -421 241 -79 21 -301 28 -375 11z m297 -152 c152 -29 286 -100 399
-212 71 -70 148 -178 138 -194 -11 -19 -178 -4 -284 25 -52 14 -144 42 -205
61 -257 85 -482 46 -590 -101 -28 -39 -34 -42 -91 -49 -86 -10 -271 -2 -285
12 -14 14 8 86 60 194 48 97 82 141 139 179 57 37 70 37 129 0 81 -51 162 -38
257 43 70 58 177 72 333 42z m56 -480 c100 -30 220 -62 267 -72 80 -17 85 -19
88 -46 3 -21 13 -32 46 -47 52 -25 76 -64 76 -125 0 -79 -47 -135 -113 -135
-22 0 -29 -12 -77 -152 -101 -295 -222 -497 -344 -573 -46 -28 -57 -30 -165
-34 -168 -5 -210 7 -289 83 -117 111 -194 251 -288 521 l-52 150 -39 8 c-57
11 -95 54 -101 115 -5 61 15 103 66 137 35 23 46 24 216 28 l180 4 15 44 c20
56 77 112 132 132 24 8 79 16 122 16 67 1 104 -7 260 -54z"/>
<path d="M873 3961 c-18 -5 -48 -22 -68 -40 -20 -17 -38 -31 -40 -31 -3 0 -22
9 -42 20 -21 11 -52 20 -68 20 -37 0 -110 -44 -149 -91 -36 -42 -92 -161 -108
-228 -11 -47 -10 -53 10 -74 l22 -23 -20 -42 c-11 -22 -20 -58 -20 -79 0 -51
37 -123 77 -148 25 -16 39 -41 73 -127 56 -143 103 -219 176 -287 76 -72 118
-85 246 -79 69 3 104 10 134 26 88 46 185 186 250 365 22 60 36 83 59 97 34
21 69 77 80 127 8 38 -8 103 -34 134 -19 23 -19 23 23 60 l41 37 -30 57 c-38
72 -139 183 -206 225 -84 55 -172 81 -279 86 -52 2 -109 0 -127 -5z m183 -92
c71 -13 165 -56 217 -100 49 -40 117 -126 117 -146 0 -25 -102 -11 -265 37
-77 22 -160 40 -186 40 -77 0 -146 -26 -194 -75 -42 -41 -46 -43 -122 -50 -49
-4 -89 -2 -106 4 -34 13 -32 21 19 129 26 53 47 81 76 103 l41 29 36 -21 c59
-35 114 -26 171 26 36 34 101 41 196 24z m27 -293 c62 -18 138 -39 170 -46 47
-9 60 -16 67 -36 5 -13 16 -24 24 -24 23 0 46 -40 46 -79 0 -40 -32 -81 -64
-81 -18 0 -26 -16 -54 -96 -67 -197 -150 -328 -229 -360 -42 -18 -164 -18
-206 0 -45 19 -120 102 -158 177 -18 35 -49 111 -69 169 -35 97 -40 105 -69
112 -62 17 -78 106 -25 147 19 15 49 21 139 26 l114 7 18 37 c22 43 89 81 146
81 21 0 89 -15 150 -34z"/>
<path d="M4093 3960 c-18 -4 -48 -21 -68 -39 -20 -17 -38 -31 -40 -31 -3 0
-22 9 -42 20 -51 27 -91 25 -144 -8 -79 -50 -129 -130 -175 -275 -18 -57 -18
-57 4 -86 l22 -30 -20 -43 c-11 -24 -20 -58 -20 -77 0 -50 36 -118 78 -146 29
-19 41 -40 64 -101 53 -146 98 -225 173 -300 85 -86 120 -98 257 -92 115 5
154 24 231 108 57 64 115 171 158 293 18 53 31 73 56 88 84 52 106 182 44 261
l-19 24 34 23 c18 13 36 32 39 42 10 32 -45 119 -130 205 -120 121 -246 175
-403 173 -37 -1 -81 -4 -99 -9z m200 -95 c115 -24 229 -102 298 -201 26 -38
28 -45 14 -50 -28 -11 -118 5 -261 46 -76 22 -159 40 -185 40 -77 0 -146 -27
-193 -74 -40 -41 -45 -44 -116 -50 -41 -3 -88 -3 -105 2 -38 11 -37 31 11 129
25 53 46 82 76 103 l41 30 36 -21 c59 -35 114 -26 171 26 38 36 109 42 213 20z
m17 -290 c62 -19 137 -39 167 -46 40 -8 57 -16 60 -30 3 -10 10 -19 15 -19 5
0 20 -11 33 -25 47 -46 20 -145 -39 -145 -18 0 -26 -14 -50 -87 -60 -189 -154
-336 -233 -369 -38 -16 -143 -18 -195 -4 -81 23 -183 178 -245 371 -22 68 -32
89 -46 89 -70 1 -98 104 -41 149 19 15 49 21 139 26 l114 7 19 37 c22 44 89
81 148 81 23 0 92 -16 154 -35z"/>
<path d="M1289 2833 c-23 -3 -40 -11 -45 -23 -16 -33 -289 -419 -295 -417 -9
3 -330 399 -336 414 -7 17 -116 27 -157 13 -45 -15 -162 -138 -214 -226 -87
-146 -122 -293 -122 -505 l0 -128 82 -60 c255 -188 583 -274 903 -238 l70 8
-3 -244 -3 -243 49 -42 c248 -208 609 -372 957 -434 159 -29 506 -31 660 -5
359 62 686 207 959 425 l68 55 -3 253 c-2 140 -2 254 1 254 3 0 41 -7 85 -16
122 -24 344 -22 472 5 208 43 382 125 547 255 l38 31 -5 170 c-5 184 -27 285
-83 398 -60 119 -210 288 -269 303 -14 3 -59 3 -99 -1 -55 -5 -76 -11 -81 -23
-8 -21 -289 -422 -295 -422 -6 1 -299 363 -323 400 -15 24 -27 29 -77 35 -35
4 -72 2 -92 -4 -54 -18 -172 -148 -235 -258 l-29 -52 -35 28 c-47 39 -113 71
-146 71 -15 0 -72 -5 -126 -12 -95 -12 -99 -13 -114 -43 -9 -16 -119 -178
-246 -358 -186 -265 -232 -326 -242 -315 -14 15 -522 647 -545 678 -13 18 -27
21 -125 23 -71 1 -118 -3 -131 -10 -20 -11 -25 -8 -59 43 -46 70 -106 136
-168 186 -51 40 -71 43 -188 31z m143 -116 c47 -36 124 -127 153 -181 l19 -34
-73 -78 c-91 -97 -191 -247 -241 -361 -36 -82 -90 -249 -90 -279 0 -21 -80
-29 -270 -28 -157 0 -185 3 -275 27 -117 32 -293 115 -384 182 l-64 47 6 137
c10 224 67 373 195 510 56 61 72 73 100 73 18 1 39 -5 46 -13 10 -10 393 -505
400 -516 1 -1 82 119 181 267 99 148 187 271 195 273 37 11 61 5 102 -26z
m3196 19 c33 -17 106 -94 149 -156 86 -126 120 -242 130 -436 l6 -132 -64 -47
c-89 -67 -268 -151 -385 -182 -145 -38 -376 -44 -524 -13 -57 12 -106 23 -108
24 -1 2 -12 36 -23 77 -48 174 -134 340 -253 487 l-69 85 23 46 c29 61 99 157
147 203 36 34 55 42 95 39 9 0 107 -118 218 -261 111 -143 204 -260 208 -260
4 0 86 119 182 265 96 145 182 266 190 268 30 9 51 7 78 -7z m-1444 -398 c4
-62 9 -125 12 -139 4 -24 0 -29 -41 -49 -64 -31 -95 -87 -106 -193 -11 -94
-26 -161 -75 -342 -32 -114 -36 -140 -32 -215 6 -118 46 -191 121 -219 47 -18
141 -14 160 7 49 55 16 120 -66 129 -33 4 -51 12 -58 25 -19 36 -3 160 44 340
26 98 50 209 53 248 8 79 24 100 79 100 49 0 73 -24 80 -78 13 -94 38 -210 73
-337 38 -136 48 -249 23 -278 -6 -8 -32 -17 -58 -20 -54 -6 -83 -33 -83 -78 0
-47 31 -69 97 -69 118 0 181 60 204 196 14 80 13 89 -50 324 -22 86 -47 202
-55 259 -19 129 -43 171 -123 207 -35 15 -38 24 -47 147 -3 37 -1 67 4 67 14
0 128 -136 175 -209 139 -215 183 -377 192 -697 l6 -211 -84 -60 c-681 -487
-1574 -483 -2243 10 l-69 51 6 215 c4 163 11 237 25 301 36 154 101 299 190
425 50 71 188 225 201 225 4 0 -4 -33 -17 -72 -37 -111 -34 -217 12 -378 20
-69 39 -148 42 -176 6 -48 5 -52 -18 -57 -66 -17 -118 -94 -118 -177 0 -183
231 -259 338 -110 60 82 51 176 -25 248 -41 40 -46 49 -54 110 -4 37 -23 114
-41 172 -28 90 -32 120 -32 205 0 80 5 112 23 158 12 31 25 57 29 56 4 0 151
-187 326 -415 176 -228 323 -411 327 -407 3 5 131 195 284 423 153 228 285
423 293 433 8 9 27 17 42 17 l27 0 7 -112z m-1324 -753 c17 -21 -2 -65 -28
-65 -22 0 -42 19 -42 40 0 37 47 53 70 25z"/>
</g>
</svg>
