<?xml version="1.0" standalone="no"?>
<!DOCTYPE svg PUBLIC "-//W3C//DTD SVG 20010904//EN"
 "http://www.w3.org/TR/2001/REC-SVG-20010904/DTD/svg10.dtd">
<svg version="1.0" xmlns="http://www.w3.org/2000/svg"
 width="512.000000pt" height="512.000000pt" viewBox="0 0 512.000000 512.000000"
 preserveAspectRatio="xMidYMid meet">

<g transform="translate(0.000000,512.000000) scale(0.100000,-0.100000)"
fill="#000000" stroke="none">
<path d="M1753 5019 c-179 -37 -316 -95 -469 -197 -134 -90 -132 -86 -75 -151
l48 -55 79 58 c102 75 254 148 374 182 74 20 126 27 237 31 221 8 374 -22 548
-110 117 -58 189 -110 288 -206 96 -93 164 -186 222 -301 87 -173 115 -304
115 -536 l0 -165 -677 3 -678 3 -42 23 c-66 35 -110 79 -140 140 -28 56 -28
59 -31 280 l-3 222 -74 0 -74 0 -3 -151 -3 -151 -62 -20 c-126 -38 -246 -160
-287 -291 l-18 -57 -75 0 -75 0 4 193 c4 167 9 205 32 292 32 122 105 274 182
379 l58 79 -54 48 c-65 58 -62 59 -152 -75 -74 -111 -107 -176 -147 -289 -54
-154 -71 -263 -71 -461 l0 -175 -28 -15 c-39 -20 -81 -64 -104 -110 -18 -35
-19 -55 -16 -195 3 -148 5 -159 31 -209 16 -30 47 -74 69 -98 39 -42 40 -47
30 -77 -5 -18 -33 -96 -61 -175 -152 -426 -155 -644 -15 -927 24 -49 73 -130
109 -180 36 -49 65 -93 65 -97 0 -3 -102 -58 -226 -122 -260 -133 -345 -187
-430 -272 -69 -69 -128 -176 -144 -263 -6 -29 -10 -208 -10 -397 l0 -344 2024
0 c2202 0 2093 -3 2270 56 76 25 232 98 268 126 17 12 15 17 -22 75 l-39 62
-93 -49 c-176 -91 -337 -126 -542 -117 -192 8 -348 59 -511 166 -173 113 -290
245 -376 426 -139 291 -139 610 -1 899 136 282 378 482 687 566 102 28 304 38
413 20 378 -60 694 -318 823 -670 102 -281 86 -570 -49 -840 -26 -52 -48 -97
-50 -100 -3 -7 103 -80 116 -80 18 0 98 158 134 264 123 363 75 738 -137 1056
-179 270 -469 460 -784 515 -107 19 -315 19 -423 0 -164 -28 -343 -103 -484
-204 -179 -126 -357 -357 -427 -554 -6 -15 -22 -10 -137 48 l-130 65 0 134 0
133 38 25 c195 129 354 388 394 638 l12 78 86 4 c248 12 387 200 367 496 -7
102 -40 169 -102 210 l-42 27 -7 175 c-7 202 -24 314 -68 443 -147 439 -513
759 -971 848 -133 26 -356 25 -484 -2z m-333 -1281 c20 -69 49 -118 103 -176
61 -63 115 -97 198 -123 56 -18 100 -19 580 -19 l519 0 0 -317 c0 -285 -2
-327 -20 -403 -93 -387 -450 -651 -848 -627 -380 23 -697 305 -762 677 -7 43
-10 198 -8 450 3 373 4 386 25 425 35 67 141 153 189 155 6 0 17 -19 24 -42z
m-400 -543 l0 -225 -59 0 c-77 0 -153 38 -196 99 -29 41 -30 47 -33 172 -5
176 -3 177 176 178 l112 1 0 -225z m2230 200 c20 -18 21 -26 18 -151 -3 -128
-4 -134 -33 -176 -42 -59 -119 -98 -197 -98 l-58 0 0 226 0 226 124 -4 c106
-3 127 -6 146 -23z m-2291 -575 l68 0 6 -52 c10 -78 39 -182 80 -279 78 -189
107 -396 72 -528 -29 -111 -97 -226 -214 -361 l-31 -35 -20 25 c-50 61 -133
193 -164 261 -52 112 -69 189 -69 309 1 129 27 245 108 475 31 88 59 168 62
178 3 11 12 16 20 13 8 -3 45 -6 82 -6z m469 -714 l53 -38 -3 -127 -3 -126
-124 -63 -124 -64 31 54 c53 92 84 201 90 315 3 72 8 100 16 95 6 -4 35 -24
64 -46z m394 -171 c152 -29 348 -15 492 35 l56 19 0 -513 0 -514 -32 -48 c-62
-92 -202 -141 -378 -131 -153 8 -267 64 -309 150 -20 42 -21 58 -21 550 l0
506 56 -19 c31 -11 92 -26 136 -35z m-342 -1000 l0 -705 -666 0 -665 0 3 288
3 287 29 63 c36 78 130 169 241 234 89 51 1036 538 1048 538 4 0 7 -317 7
-705z m1254 513 c-44 -290 24 -588 191 -838 93 -140 232 -273 381 -367 15 -9
-67 -12 -378 -12 l-398 -1 0 705 0 705 108 -54 108 -54 -12 -84z m-364 -973
l0 -245 -295 0 -295 0 0 211 0 212 33 -7 c17 -4 67 -11 109 -17 129 -16 317
17 403 72 17 10 33 19 38 19 4 0 7 -110 7 -245z"/>
<path d="M2210 4595 l0 -75 75 0 75 0 0 75 0 75 -75 0 -75 0 0 -75z"/>
<path d="M2510 4445 l0 -75 75 0 75 0 0 75 0 75 -75 0 -75 0 0 -75z"/>
<path d="M3990 1984 c-205 -54 -362 -230 -392 -439 -15 -109 1 -201 54 -307
l40 -80 -106 -107 -106 -106 -80 80 -80 80 -52 -53 -53 -52 80 -80 80 -80 -80
-80 -79 -80 54 -55 54 -55 81 80 80 80 80 -80 79 -80 53 52 53 52 -80 81 -80
80 110 110 c102 102 110 108 127 93 56 -49 186 -88 294 -88 145 0 259 48 365
154 110 110 158 223 156 376 -1 151 -60 282 -173 385 -127 115 -316 162 -479
119z m202 -145 c115 -25 213 -101 265 -207 25 -51 28 -68 28 -157 0 -90 -3
-106 -29 -159 -39 -79 -102 -140 -184 -179 -153 -72 -344 -25 -446 109 -58 75
-79 144 -74 244 8 175 113 304 283 346 65 16 92 16 157 3z"/>
<path d="M4656 528 l-45 -53 52 -53 51 -52 53 52 53 52 -52 53 c-29 29 -55 53
-59 53 -4 0 -28 -24 -53 -52z"/>
</g>
</svg>
