<?xml version="1.0" standalone="no"?>
<!DOCTYPE svg PUBLIC "-//W3C//DTD SVG 20010904//EN"
 "http://www.w3.org/TR/2001/REC-SVG-20010904/DTD/svg10.dtd">
<svg version="1.0" xmlns="http://www.w3.org/2000/svg"
 width="256.000000pt" height="256.000000pt" viewBox="0 0 256.000000 256.000000"
 preserveAspectRatio="xMidYMid meet">

<g transform="translate(0.000000,256.000000) scale(0.100000,-0.100000)"
fill="#000000" stroke="none">
<path d="M954 2151 c-75 -12 -164 -55 -164 -79 0 -18 -28 -43 -75 -67 -11 -5
-33 -37 -50 -70 -27 -55 -31 -73 -38 -200 -4 -77 -7 -156 -7 -175 0 -19 3
-126 6 -236 l5 -202 -50 -12 c-79 -19 -134 -60 -165 -122 l-26 -54 2 -254 3
-254 25 -13 c36 -18 1224 -18 1260 0 l25 13 3 252 c2 233 1 257 -17 298 l-20
44 255 0 c241 0 255 1 274 20 19 19 20 33 20 453 0 410 -1 435 -19 451 -16 15
-56 16 -395 16 l-377 -1 -38 48 c-73 93 -167 139 -302 147 -46 2 -107 1 -135
-3z m1221 -656 l0 -420 -285 1 c-276 0 -287 1 -353 25 l-68 24 5 205 c3 113 5
216 6 230 1 64 -16 316 -23 328 -5 6 -5 17 -2 22 4 7 130 9 363 8 l357 -3 0
-420z m-1079 356 c54 -60 102 -91 164 -107 l45 -11 3 -114 c5 -174 0 -191 -66
-259 -67 -69 -111 -85 -217 -78 -80 5 -119 23 -169 74 -60 62 -67 87 -64 241
l3 137 31 7 c60 12 124 51 171 104 27 30 50 54 51 54 2 1 24 -21 48 -48z
m-361 -247 c12 -12 15 -31 13 -73 -3 -50 -5 -56 -23 -53 -11 2 -30 14 -42 28
-52 57 -1 151 52 98z m687 -1 c37 -33 6 -117 -47 -125 -18 -3 -20 3 -23 57 -3
47 0 62 14 72 23 17 34 16 56 -4z m-372 -366 c55 0 98 6 123 16 l37 16 0 -47
c0 -27 7 -57 15 -69 14 -21 14 -26 -9 -71 -13 -26 -30 -53 -38 -59 -21 -17
-112 -26 -189 -18 l-70 7 -30 59 c-27 55 -28 61 -14 82 8 12 15 42 15 69 l0
47 38 -16 c24 -10 67 -16 122 -16z m-151 -280 c47 -89 95 -179 108 -200 19
-30 23 -49 21 -89 l-3 -51 -121 134 -122 134 19 27 c10 14 19 31 19 36 0 11
-42 48 -62 54 -7 3 -8 22 -3 55 5 42 11 53 28 56 12 2 24 5 27 6 3 0 43 -72
89 -162z m438 150 c1 -2 5 -25 8 -54 7 -45 5 -52 -13 -57 -10 -4 -27 -15 -37
-26 -17 -19 -17 -21 1 -55 l18 -35 -32 -33 c-33 -34 -41 -61 -21 -72 14 -9 99
84 99 108 0 10 -7 28 -15 41 -15 22 -14 24 14 36 37 15 43 32 35 87 -3 24 -2
43 2 43 31 -1 159 -41 189 -60 69 -43 75 -68 75 -340 l0 -240 -75 0 -75 0 0
64 c0 43 -5 67 -15 76 -25 21 -35 1 -35 -71 l0 -69 -195 0 -195 0 0 48 c0 44
5 52 70 125 39 43 70 82 70 86 0 5 -8 12 -17 15 -12 5 -31 -9 -69 -51 l-53
-58 -1 52 c0 41 7 64 38 120 22 37 70 128 108 201 65 125 70 132 94 127 14 -4
26 -7 27 -8z m-632 -71 c-7 -53 -7 -55 24 -70 35 -19 36 -21 17 -56 -9 -15
-11 -31 -6 -41 5 -9 72 -85 149 -170 139 -152 141 -155 141 -201 l0 -48 -195
0 -195 0 0 69 c0 72 -6 86 -34 75 -13 -5 -16 -21 -16 -75 l0 -70 -77 3 -78 3
0 241 0 241 27 41 c36 54 59 68 149 91 107 28 102 29 94 -33z"/>
<path d="M1830 1810 c-8 -6 -32 -8 -52 -4 -45 7 -68 -5 -132 -67 -42 -41 -51
-57 -58 -101 -22 -131 -22 -125 11 -159 17 -17 31 -37 31 -46 0 -19 54 -73 74
-73 13 0 16 -15 16 -96 0 -86 2 -95 18 -92 15 3 17 18 20 116 1 61 -1 112 -5
113 -46 4 -73 23 -73 49 0 23 17 36 58 45 35 7 55 34 50 67 -4 31 -26 33 -39
4 -8 -17 -20 -26 -34 -26 -12 0 -34 -10 -49 -21 -19 -15 -31 -18 -38 -11 -15
15 -13 62 5 79 10 10 13 27 10 53 -5 35 -3 40 24 54 17 8 38 26 47 40 14 22
24 26 64 26 26 0 65 0 87 0 82 1 100 -5 136 -40 19 -20 38 -43 41 -52 6 -13 1
-15 -34 -11 -37 6 -40 4 -36 -18 2 -14 11 -25 23 -27 31 -6 45 -22 45 -51 0
-47 -45 -67 -90 -39 -15 10 -22 9 -37 -4 -10 -9 -34 -18 -53 -20 l-35 -3 -2
-150 c-3 -153 2 -183 31 -172 14 5 16 27 16 140 l0 135 33 7 c17 4 53 7 79 6
41 -2 52 1 77 27 29 28 30 33 30 115 0 84 -1 87 -35 129 -20 24 -40 47 -45 52
-5 5 -30 13 -56 17 -27 5 -61 11 -78 14 -16 3 -37 1 -45 -5z"/>
<path d="M1694 1665 c-28 -29 -30 -68 -2 -73 12 -2 21 6 27 22 7 17 19 26 38
28 20 2 28 9 28 23 0 33 -58 33 -91 0z"/>
<path d="M864 1706 c-27 -21 -6 -39 46 -39 52 0 73 18 46 39 -11 8 -32 14 -46
14 -14 0 -35 -6 -46 -14z"/>
<path d="M1144 1706 c-27 -21 -6 -39 46 -39 51 0 68 14 45 37 -20 20 -65 21
-91 2z"/>
<path d="M890 1605 c0 -18 5 -25 20 -25 15 0 20 7 20 25 0 18 -5 25 -20 25
-15 0 -20 -7 -20 -25z"/>
<path d="M1170 1605 c0 -18 5 -25 20 -25 15 0 20 7 20 25 0 18 -5 25 -20 25
-15 0 -20 -7 -20 -25z"/>
<path d="M964 1455 c-10 -25 10 -38 68 -43 64 -5 111 11 106 36 -2 11 -11 16
-23 14 -42 -7 -101 -7 -123 1 -16 6 -24 4 -28 -8z"/>
</g>
</svg>
