<?xml version="1.0" standalone="no"?>
<!DOCTYPE svg PUBLIC "-//W3C//DTD SVG 20010904//EN"
 "http://www.w3.org/TR/2001/REC-SVG-20010904/DTD/svg10.dtd">
<svg version="1.0" xmlns="http://www.w3.org/2000/svg"
 width="512.000000pt" height="512.000000pt" viewBox="0 0 512.000000 512.000000"
 preserveAspectRatio="xMidYMid meet">

<g transform="translate(0.000000,512.000000) scale(0.100000,-0.100000)"
fill="#000000" stroke="none">
<path d="M1444 4986 c-468 -77 -820 -450 -863 -917 -8 -82 2 -296 14 -308 3
-2 -12 -23 -31 -47 -107 -130 -98 -314 22 -430 l53 -52 -35 -198 c-43 -243
-43 -353 -1 -473 15 -41 25 -75 24 -76 -1 0 -37 -18 -80 -39 -189 -94 -332
-270 -399 -488 -22 -72 -22 -82 -26 -773 -3 -774 -5 -750 61 -815 66 -64 494
-175 835 -215 422 -50 944 -40 1342 26 284 47 599 139 658 194 l36 32 75 -56
c205 -152 430 -224 696 -224 318 0 578 103 804 318 182 173 294 375 348 625
24 116 24 342 -1 460 -95 447 -424 792 -863 906 -133 35 -357 44 -488 20 -223
-42 -426 -140 -581 -280 -29 -25 -54 -46 -57 -46 -3 0 -18 21 -33 47 -61 104
-242 256 -352 294 -24 8 -32 16 -28 28 65 197 67 246 21 514 l-37 217 50 48
c78 74 97 119 97 232 0 86 -3 100 -29 147 -16 29 -39 61 -51 73 -20 19 -21 26
-13 68 16 79 12 288 -6 376 -85 392 -372 695 -752 792 -122 31 -292 39 -410
20z m522 -1053 c26 -42 151 -168 193 -196 20 -14 55 -36 77 -50 l42 -26 -23
-128 c-36 -200 -84 -302 -196 -410 -135 -132 -278 -189 -469 -187 -187 2 -335
68 -466 207 -101 108 -154 220 -179 383 l-6 41 78 12 c367 58 701 189 883 349
19 17 38 31 41 32 4 0 15 -12 25 -27z m564 -345 c39 -65 18 -163 -43 -203 -25
-16 -88 -37 -94 -32 -2 2 7 63 19 135 l23 132 37 0 c32 0 41 -5 58 -32z
m-1736 -135 c10 -52 16 -96 14 -99 -7 -6 -68 14 -95 31 -36 24 -63 75 -63 121
0 22 2 43 4 45 2 2 31 3 63 1 l59 -4 18 -95z m968 -803 c3 -112 6 -130 31
-177 31 -60 83 -115 130 -139 17 -9 34 -18 36 -20 9 -8 -65 -86 -112 -117
-183 -122 -410 -97 -563 60 -24 25 -44 48 -44 53 0 4 14 13 31 20 43 18 113
91 140 147 20 41 24 67 27 173 l4 125 158 0 158 0 4 -125z m-790 -375 c3 -49
8 -118 10 -152 l4 -62 -27 20 c-16 11 -53 31 -84 44 l-55 25 0 110 0 111 73
-3 72 -3 7 -90z m1388 -75 l0 -170 -23 0 c-12 0 -47 -6 -76 -14 l-53 -14 6 57
c3 31 8 108 12 171 3 63 7 121 9 128 3 8 25 12 65 12 l60 0 0 -170z m288 63
c71 -48 161 -149 196 -217 l28 -56 -32 -49 -31 -50 -40 40 c-49 49 -125 86
-196 95 l-53 6 0 149 0 149 38 -15 c20 -9 61 -32 90 -52z m-1988 -32 l0 -89
-30 -7 c-52 -11 -145 -82 -183 -138 -52 -76 -71 -143 -65 -230 12 -187 154
-328 340 -339 21 -1 40 -8 42 -15 8 -19 44 -16 55 5 5 9 31 25 59 34 27 10 69
36 95 58 l46 40 5 -52 c3 -29 22 -291 41 -583 19 -291 37 -547 39 -569 l4 -38
-71 7 c-130 12 -142 16 -145 53 -2 18 -10 36 -18 39 -20 7 -44 -15 -44 -42 l0
-23 -132 28 c-129 27 -365 92 -401 112 -17 9 -18 44 -15 701 l3 692 27 73 c36
100 81 170 152 241 54 53 166 131 188 131 4 0 8 -40 8 -89z m3363 58 c309 -63
568 -262 707 -544 154 -314 141 -662 -39 -969 -53 -92 -188 -238 -277 -302
-402 -287 -956 -242 -1305 106 -292 291 -379 732 -220 1111 88 209 276 411
476 511 201 101 438 132 658 87z m-2730 -252 c65 -38 184 -76 264 -83 148 -14
326 48 443 154 40 36 61 49 57 37 -3 -11 -8 -78 -12 -150 -4 -71 -11 -150 -17
-175 -33 -146 -55 -323 -46 -358 6 -20 12 -53 15 -72 5 -39 -65 -1081 -73
-1090 -7 -6 -641 -7 -647 0 -3 3 -33 408 -66 900 -33 492 -62 909 -64 927 l-3
31 52 -48 c29 -26 73 -59 97 -73z m-468 -66 c125 -58 158 -219 64 -318 -43
-45 -85 -63 -146 -63 -100 1 -185 72 -199 167 -24 158 137 281 281 214z m1585
-130 c0 -37 24 -59 45 -41 8 7 15 25 15 41 0 27 3 29 38 29 97 0 170 -50 192
-130 11 -39 9 -57 -15 -152 -19 -78 -33 -115 -51 -133 -29 -29 -31 -64 -4 -98
16 -20 20 -40 20 -105 0 -208 87 -463 221 -643 70 -95 67 -114 -26 -146 -93
-32 -357 -100 -421 -108 l-51 -7 -6 32 c-6 26 -11 31 -29 28 -18 -2 -24 -11
-28 -38 -6 -39 -17 -43 -145 -55 l-71 -7 12 169 c6 92 22 320 34 506 l24 337
38 0 c28 0 46 7 63 25 51 50 18 135 -53 135 l-34 0 6 148 c6 115 11 152 25
172 26 37 97 70 153 70 46 0 48 -1 48 -29z"/>
<path d="M1330 3317 c-34 -17 -55 -57 -46 -90 3 -15 24 -40 47 -57 140 -101
398 -101 538 1 36 25 41 34 41 67 0 46 -32 82 -73 82 -14 0 -47 -11 -72 -24
-102 -55 -222 -56 -324 -3 -66 34 -83 38 -111 24z"/>
<path d="M787 1203 c-9 -8 -9 -115 -1 -165 7 -39 28 -55 50 -37 10 8 12 30 8
88 -7 106 -11 121 -33 121 -10 0 -21 -3 -24 -7z"/>
<path d="M814 798 c-11 -17 -5 -168 7 -190 11 -20 34 -24 45 -7 10 16 5 155
-6 185 -10 26 -34 32 -46 12z"/>
<path d="M3443 2200 c-45 -18 -56 -52 -51 -158 3 -87 7 -106 39 -173 20 -41
50 -91 68 -111 36 -41 38 -48 12 -48 -10 0 -51 -16 -91 -36 -96 -48 -178 -131
-226 -230 -29 -57 -41 -73 -53 -68 -73 30 -168 6 -225 -56 -87 -97 -67 -264
44 -364 57 -51 100 -68 172 -65 l59 3 20 -40 c88 -165 245 -278 436 -311 106
-18 328 -13 413 11 107 30 181 75 265 160 44 45 91 104 105 131 l25 51 56 -4
c97 -7 191 50 239 145 21 40 25 62 25 135 0 80 -2 89 -30 129 -16 23 -48 52
-70 63 -41 21 -116 28 -165 14 -24 -7 -28 -3 -55 59 -34 80 -119 173 -199 222
-84 50 -170 71 -326 78 -153 6 -193 18 -259 79 -76 68 -120 174 -121 286 0 61
-7 76 -41 93 -32 17 -35 17 -66 5z m642 -645 c102 -27 179 -91 224 -185 24
-52 26 -64 26 -200 0 -142 -1 -146 -32 -213 -71 -150 -201 -239 -373 -258
-295 -31 -494 54 -585 253 -54 119 -60 306 -13 410 53 116 156 189 293 207
104 14 387 6 460 -14z m-968 -357 c16 -17 22 -38 24 -83 3 -55 1 -60 -19 -63
-15 -2 -34 8 -57 31 -29 29 -35 42 -35 79 0 25 3 48 7 51 14 15 61 6 80 -15z
m1497 6 c25 -64 -31 -154 -95 -154 -20 0 -21 3 -15 68 5 50 13 72 28 85 25 21
74 22 82 1z"/>
<path d="M3561 1074 c-27 -35 -26 -61 3 -105 99 -145 367 -160 493 -27 44 46
54 76 38 114 -21 51 -90 61 -128 21 -71 -77 -199 -81 -277 -11 -48 44 -98 47
-129 8z"/>
<path d="M2396 1588 c-3 -13 -8 -57 -11 -99 -7 -80 4 -106 38 -93 16 6 32 119
25 179 -4 39 -45 49 -52 13z"/>
<path d="M2372 1193 c-6 -10 -11 -56 -13 -102 -3 -71 -1 -85 13 -95 33 -20 43
7 43 112 0 83 -2 97 -17 100 -9 2 -21 -5 -26 -15z"/>
<path d="M2343 798 c-4 -7 -9 -55 -11 -105 -4 -80 -2 -94 13 -99 9 -4 22 -1
30 7 17 18 27 183 12 198 -15 15 -34 14 -44 -1z"/>
</g>
</svg>
